<svg width="1600" height="2326" viewBox="0 0 1600 2326" fill="none" xmlns="http://www.w3.org/2000/svg">
<path fill-rule="evenodd" clip-rule="evenodd" d="M0 198.856L66.6667 179.108C133.333 159.359 266.667 119.862 400 149.485C533.333 179.108 666.667 277.85 800 258.102C933.333 238.353 1066.67 100.113 1200 40.8679C1333.33 -18.3776 1466.67 1.37088 1533.33 11.2451L1600 21.1194V435.838H1533.33C1466.67 435.838 1333.33 435.838 1200 435.838C1066.67 435.838 933.333 435.838 800 435.838C666.667 435.838 533.333 435.838 400 435.838C266.667 435.838 133.333 435.838 66.6667 435.838H0V198.856Z" fill="#3F2305"/>
<path d="M0 434.691H1600V2326H0V434.691Z" fill="#3F2305"/>
</svg>
